# Blender v2.78 (sub 0) OBJ File: ''
# www.blender.org
o Icosphere_Icosphere.001
v 0.000000 -1.000000 0.000000     0.5372 0.5490 0.9921
v -0.525725 -0.447220 0.723607    1.0    0.5372 0.7058
v -0.850649 -0.447220 -0.276388   0.9960 0.8588 0.5411
v 0.000000 -0.447216 -0.894426    0.5647 0.8274 0.9647
v 0.850649 -0.447220 -0.276388    0.4352 0.8745 0.5921
v 0.525725 -0.447220 0.723607     0.9568 0.6313 0.4352
v -0.850649 0.447220 0.276388     0.4    0.5529 0.8901
v -0.525725 0.447220 -0.723607    0.9254 0.4235 0.4705
v 0.525725 0.447220 -0.723607     0.3529 0.8117 0.8941
v 0.850649 0.447220 0.276388      0.8549 0.5921 0.8705
v 0.000000 0.447216 0.894426      0.8078 0.9490 0.5137
v 0.000000 1.000000 0.000000      1.0    0.5882 0.8823
v -0.499995 -0.850654 -0.162456   0.7333 0.5882 0.9921
v -0.309011 -0.850654 0.425323    0.3960 0.9294 0.7411
v -0.809012 -0.525738 0.262869    1.0    0.5372 0.7058
v 0.000000 -0.525736 0.850648     0.9960 0.8588 0.5411
v 0.309011 -0.850654 0.425323     0.5647 0.8274 0.9647
v 0.000000 -0.850652 -0.525730    0.4352 0.8745 0.5921
v -0.499997 -0.525736 -0.688189   0.9568 0.6313 0.4352
v 0.499995 -0.850654 -0.162456    0.4    0.5529 0.8901
v 0.499997 -0.525736 -0.688189    0.9254 0.4235 0.4705
v 0.809012 -0.525738 0.262869     0.3529 0.8117 0.8941
v -0.309013 0.000000 0.951058     0.8549 0.5921 0.8705
v 0.309013 0.000000 0.951058      0.8078 0.9490 0.5137
v -1.000000 0.000000 0.000000     1.0    0.5882 0.8823
v -0.809017 0.000000 0.587786     0.7333 0.5882 0.9921
v -0.309013 0.000000 -0.951058    0.3960 0.9294 0.7411
v -0.809017 0.000000 -0.587786    0.5372 0.5490 0.9921
v 0.809017 0.000000 -0.587786     1.0    0.5372 0.7058
v 0.309013 0.000000 -0.951058     0.9960 0.8588 0.5411
v 0.809017 0.000000 0.587786      0.5647 0.8274 0.9647
v 1.000000 0.000000 0.000000      0.4352 0.8745 0.5921
v -0.499997 0.525736 0.688189     0.9568 0.6313 0.4352
v -0.809012 0.525738 -0.262869    0.4    0.5529 0.8901
v 0.000000 0.525736 -0.850648     0.9254 0.4235 0.4705
v 0.809012 0.525738 -0.262869     0.3529 0.8117 0.8941
v 0.499997 0.525736 0.688189      0.8549 0.5921 0.8705
v -0.499995 0.850654 0.162456     0.8078 0.9490 0.5137
v 0.000000 0.850652 0.525730      1.0    0.5882 0.8823
v -0.309011 0.850654 -0.425323    0.7333 0.5882 0.9921
v 0.309011 0.850654 -0.425323     0.3960 0.9294 0.7411
v 0.499995 0.850654 0.162456      1.0    0.5372 0.7058
vn 0.0000 -1.0000 0.0000
vn -0.3090 -0.8506 0.4253
vn -0.5000 -0.8506 -0.1625
vn -0.5257 -0.4472 0.7236
vn 0.0000 -0.5257 0.8506
vn 0.0000 -0.8506 -0.5257
vn 0.5000 -0.8506 -0.1625
vn 0.3090 -0.8506 0.4253
vn -0.3090 0.0000 0.9510
vn -0.8506 -0.4472 -0.2764
vn -0.8090 -0.5257 0.2629
vn -1.0000 0.0000 0.0000
vn 0.0000 -0.4472 -0.8944
vn -0.5000 -0.5257 -0.6882
vn -0.3090 0.0000 -0.9510
vn 0.8506 -0.4472 -0.2764
vn 0.5000 -0.5257 -0.6882
vn 0.8090 0.0000 -0.5878
vn 0.5257 -0.4472 0.7236
vn 0.8090 -0.5257 0.2629
vn 0.8090 0.0000 0.5878
vn -0.8090 0.0000 0.5878
vn -0.8090 0.0000 -0.5878
vn 0.3090 0.0000 -0.9510
vn 1.0000 0.0000 0.0000
vn 0.3090 0.0000 0.9510
vn -0.8506 0.4472 0.2764
vn -0.5000 0.5257 0.6882
vn -0.5000 0.8506 0.1625
vn -0.5257 0.4472 -0.7236
vn -0.8090 0.5257 -0.2629
vn -0.3090 0.8506 -0.4253
vn 0.5257 0.4472 -0.7236
vn 0.0000 0.5257 -0.8506
vn 0.3090 0.8506 -0.4253
vn 0.8506 0.4472 0.2764
vn 0.8090 0.5257 -0.2629
vn 0.5000 0.8506 0.1625
vn 0.0000 0.4472 0.8944
vn 0.5000 0.5257 0.6882
vn 0.0000 0.8506 0.5257
vn 0.0000 1.0000 0.0000
s 1
f 1//1 14//2 13//3
f 2//4 14//2 16//5
f 1//1 13//3 18//6
f 1//1 18//6 20//7
f 1//1 20//7 17//8
f 2//4 16//5 23//9
f 3//10 15//11 25//12
f 4//13 19//14 27//15
f 5//16 21//17 29//18
f 6//19 22//20 31//21
f 2//4 23//9 26//22
f 3//10 25//12 28//23
f 4//13 27//15 30//24
f 5//16 29//18 32//25
f 6//19 31//21 24//26
f 7//27 33//28 38//29
f 8//30 34//31 40//32
f 9//33 35//34 41//35
f 10//36 36//37 42//38
f 11//39 37//40 39//41
f 39//41 42//38 12//42
f 39//41 37//40 42//38
f 37//40 10//36 42//38
f 42//38 41//35 12//42
f 42//38 36//37 41//35
f 36//37 9//33 41//35
f 41//35 40//32 12//42
f 41//35 35//34 40//32
f 35//34 8//30 40//32
f 40//32 38//29 12//42
f 40//32 34//31 38//29
f 34//31 7//27 38//29
f 38//29 39//41 12//42
f 38//29 33//28 39//41
f 33//28 11//39 39//41
f 24//26 37//40 11//39
f 24//26 31//21 37//40
f 31//21 10//36 37//40
f 32//25 36//37 10//36
f 32//25 29//18 36//37
f 29//18 9//33 36//37
f 30//24 35//34 9//33
f 30//24 27//15 35//34
f 27//15 8//30 35//34
f 28//23 34//31 8//30
f 28//23 25//12 34//31
f 25//12 7//27 34//31
f 26//22 33//28 7//27
f 26//22 23//9 33//28
f 23//9 11//39 33//28
f 31//21 32//25 10//36
f 31//21 22//20 32//25
f 22//20 5//16 32//25
f 29//18 30//24 9//33
f 29//18 21//17 30//24
f 21//17 4//13 30//24
f 27//15 28//23 8//30
f 27//15 19//14 28//23
f 19//14 3//10 28//23
f 25//12 26//22 7//27
f 25//12 15//11 26//22
f 15//11 2//4 26//22
f 23//9 24//26 11//39
f 23//9 16//5 24//26
f 16//5 6//19 24//26
f 17//8 22//20 6//19
f 17//8 20//7 22//20
f 20//7 5//16 22//20
f 20//7 21//17 5//16
f 20//7 18//6 21//17
f 18//6 4//13 21//17
f 18//6 19//14 4//13
f 18//6 13//3 19//14
f 13//3 3//10 19//14
f 16//5 17//8 6//19
f 16//5 14//2 17//8
f 14//2 1//1 17//8
f 13//3 15//11 3//10
f 13//3 14//2 15//11
f 14//2 2//4 15//11
